<?xml version="1.0" encoding="UTF-8"?>
<svg id="_0" data-name="0" xmlns="http://www.w3.org/2000/svg" viewBox="0 0 3194.94 1080">
  <defs>
    <style>
      .cls-1 {
        font-family: Bahnschrift, Bahnschrift;
        font-size: 600px;
        font-variation-settings: 'wght' 400, 'wdth' 100;
        fill: #ffffff;
      }

      .cls-2 {
        letter-spacing: -.04em;
      }

      .cls-3 {
        letter-spacing: -.09em;
      }

      .cls-4 {
        fill: none;
        stroke: #ffffff;
        stroke-linecap: round;
        stroke-linejoin: round;
        stroke-width: 10px;
      }

      .cls-5 {
        letter-spacing: -.06em;
      }
    </style>
  </defs>
  <g id="LINE">
    <line class="cls-4" x1="490.58" y1="374.67" x2="371.88" y2="306.14"/>
  </g>
  <g id="LINE-2" data-name="LINE">
    <line class="cls-4" x1="490.58" y1="374.67" x2="371.88" y2="443.2"/>
  </g>
  <g id="LINE-3" data-name="LINE">
    <line class="cls-4" x1="371.88" y1="443.2" x2="371.88" y2="580.26"/>
  </g>
  <g id="LINE-4" data-name="LINE">
    <line class="cls-4" x1="371.88" y1="580.26" x2="490.58" y2="648.79"/>
  </g>
  <g id="LINE-5" data-name="LINE">
    <line class="cls-4" x1="490.58" y1="648.79" x2="609.28" y2="580.26"/>
  </g>
  <g id="LINE-6" data-name="LINE">
    <line class="cls-4" x1="609.28" y1="580.26" x2="609.28" y2="443.2"/>
  </g>
  <g id="LINE-7" data-name="LINE">
    <line class="cls-4" x1="609.28" y1="443.2" x2="490.58" y2="374.67"/>
  </g>
  <g id="LINE-8" data-name="LINE">
    <line class="cls-4" x1="371.88" y1="306.14" x2="609.28" y2="169.09"/>
  </g>
  <g id="LINE-9" data-name="LINE">
    <line class="cls-4" x1="609.28" y1="169.09" x2="727.97" y2="237.61"/>
  </g>
  <g id="LINE-10" data-name="LINE">
    <line class="cls-4" x1="727.97" y1="237.61" x2="727.97" y2="374.67"/>
  </g>
  <g id="LINE-11" data-name="LINE">
    <line class="cls-4" x1="609.28" y1="443.2" x2="609.28" y2="306.14"/>
  </g>
  <g id="LINE-12" data-name="LINE">
    <line class="cls-4" x1="609.28" y1="306.14" x2="846.67" y2="443.2"/>
  </g>
  <g id="LINE-13" data-name="LINE">
    <line class="cls-4" x1="846.67" y1="443.2" x2="846.67" y2="580.26"/>
  </g>
  <g id="LINE-14" data-name="LINE">
    <line class="cls-4" x1="846.67" y1="580.26" x2="727.97" y2="648.79"/>
  </g>
  <g id="LINE-15" data-name="LINE">
    <line class="cls-4" x1="609.28" y1="580.26" x2="727.97" y2="511.73"/>
  </g>
  <g id="LINE-16" data-name="LINE">
    <line class="cls-4" x1="727.97" y1="511.73" x2="727.97" y2="785.85"/>
  </g>
  <g id="LINE-17" data-name="LINE">
    <line class="cls-4" x1="727.97" y1="785.85" x2="609.28" y2="854.38"/>
  </g>
  <g id="LINE-18" data-name="LINE">
    <line class="cls-4" x1="609.28" y1="854.38" x2="490.58" y2="785.85"/>
  </g>
  <g id="LINE-19" data-name="LINE">
    <line class="cls-4" x1="490.58" y1="648.79" x2="609.28" y2="717.32"/>
  </g>
  <g id="LINE-20" data-name="LINE">
    <line class="cls-4" x1="609.28" y1="717.32" x2="371.88" y2="854.38"/>
  </g>
  <g id="LINE-21" data-name="LINE">
    <line class="cls-4" x1="371.88" y1="854.38" x2="253.19" y2="785.85"/>
  </g>
  <g id="LINE-22" data-name="LINE">
    <line class="cls-4" x1="253.19" y1="785.85" x2="253.19" y2="648.79"/>
  </g>
  <g id="LINE-23" data-name="LINE">
    <line class="cls-4" x1="371.88" y1="580.26" x2="371.88" y2="717.32"/>
  </g>
  <g id="LINE-24" data-name="LINE">
    <line class="cls-4" x1="371.88" y1="717.32" x2="134.49" y2="580.26"/>
  </g>
  <g id="LINE-25" data-name="LINE">
    <line class="cls-4" x1="134.49" y1="580.26" x2="134.49" y2="443.2"/>
  </g>
  <g id="LINE-26" data-name="LINE">
    <line class="cls-4" x1="134.49" y1="443.2" x2="253.19" y2="374.67"/>
  </g>
  <g id="LINE-27" data-name="LINE">
    <line class="cls-4" x1="371.88" y1="443.2" x2="253.19" y2="511.73"/>
  </g>
  <g id="LINE-28" data-name="LINE">
    <line class="cls-4" x1="253.19" y1="511.73" x2="253.19" y2="237.61"/>
  </g>
  <g id="LINE-29" data-name="LINE">
    <line class="cls-4" x1="253.19" y1="237.61" x2="371.88" y2="169.09"/>
  </g>
  <g id="LINE-30" data-name="LINE">
    <line class="cls-4" x1="371.88" y1="169.09" x2="490.58" y2="237.61"/>
  </g>
  <g id="LINE-31" data-name="LINE">
    <line class="cls-4" x1="371.88" y1="306.14" x2="727.97" y2="237.61"/>
  </g>
  <g id="LINE-32" data-name="LINE">
    <line class="cls-4" x1="371.88" y1="306.14" x2="609.28" y2="351.83"/>
  </g>
  <g id="LINE-33" data-name="LINE">
    <line class="cls-4" x1="609.28" y1="306.14" x2="688.41" y2="534.58"/>
  </g>
  <g id="LINE-34" data-name="LINE">
    <line class="cls-4" x1="727.97" y1="511.73" x2="569.71" y2="694.48"/>
  </g>
  <g id="LINE-35" data-name="LINE">
    <line class="cls-4" x1="727.97" y1="511.73" x2="609.28" y2="854.38"/>
  </g>
  <g id="LINE-36" data-name="LINE">
    <line class="cls-4" x1="609.28" y1="717.32" x2="371.88" y2="671.63"/>
  </g>
  <g id="LINE-37" data-name="LINE">
    <line class="cls-4" x1="609.28" y1="717.32" x2="253.19" y2="785.85"/>
  </g>
  <g id="LINE-38" data-name="LINE">
    <line class="cls-4" x1="371.88" y1="717.32" x2="292.75" y2="488.89"/>
  </g>
  <g id="LINE-39" data-name="LINE">
    <line class="cls-4" x1="371.88" y1="717.32" x2="134.49" y2="443.2"/>
  </g>
  <g id="LINE-40" data-name="LINE">
    <line class="cls-4" x1="253.19" y1="511.73" x2="411.45" y2="328.99"/>
  </g>
  <g id="LINE-41" data-name="LINE">
    <line class="cls-4" x1="253.19" y1="511.73" x2="371.88" y2="169.09"/>
  </g>
  <g id="POINT">
    <line class="cls-4" x1="609.28" y1="306.14" x2="609.28" y2="306.14"/>
  </g>
  <text class="cls-1" transform="translate(883.62 737.4)"><tspan class="cls-5" x="0" y="0">B.R</tspan><tspan class="cls-2" x="806.36" y="0">.A</tspan><tspan class="cls-3" x="1282.77" y="0">.C</tspan><tspan class="cls-5" x="1682.74" y="0">.E.</tspan></text>
  <g id="LINE-42" data-name="LINE">
    <line class="cls-4" x1="609.28" y1="306.14" x2="846.67" y2="580.26"/>
  </g>
</svg>